<svg width="512" height="132" viewBox="0 0 512 132" fill="none" xmlns="http://www.w3.org/2000/svg">
<path d="M0 65.9104C0 29.5091 29.4842 0 65.8548 0C102.225 0 131.71 29.5091 131.71 65.9104C131.71 102.312 102.225 131.821 65.8548 131.821C29.4842 131.821 0 102.312 0 65.9104Z" fill="#FFF50F"/>
<path fill-rule="evenodd" clip-rule="evenodd" d="M65.8548 113.97C92.375 113.97 113.874 92.4531 113.874 65.9104C113.874 39.3678 92.375 17.8507 65.8548 17.8507C39.3346 17.8507 17.8357 39.3678 17.8357 65.9104C17.8357 92.4531 39.3346 113.97 65.8548 113.97ZM65.7249 102.302C85.878 102.302 102.215 85.9507 102.215 65.7805C102.215 45.6103 85.878 29.2592 65.7249 29.2592C45.5717 29.2592 29.2344 45.6103 29.2344 65.7805C29.2344 85.9507 45.5717 102.302 65.7249 102.302Z" fill="url(#paint0_radial_10602_4447)"/>
<path fill-rule="evenodd" clip-rule="evenodd" d="M65.8548 113.97C92.375 113.97 113.874 92.4531 113.874 65.9104C113.874 39.3678 92.375 17.8507 65.8548 17.8507C39.3346 17.8507 17.8357 39.3678 17.8357 65.9104C17.8357 92.4531 39.3346 113.97 65.8548 113.97ZM65.7249 102.302C85.878 102.302 102.215 85.9507 102.215 65.7805C102.215 45.6103 85.878 29.2592 65.7249 29.2592C45.5717 29.2592 29.2344 45.6103 29.2344 65.7805C29.2344 85.9507 45.5717 102.302 65.7249 102.302Z" fill="black"/>
<path d="M59.4475 65.9533C59.4475 71.7194 54.7771 76.3938 49.0159 76.3938C43.2547 76.3938 38.5843 71.7194 38.5843 65.9533C38.5843 60.1872 43.2547 55.5129 49.0159 55.5129C54.7771 55.5129 59.4475 60.1872 59.4475 65.9533Z" fill="url(#paint1_radial_10602_4447)"/>
<path d="M59.4475 65.9533C59.4475 71.7194 54.7771 76.3938 49.0159 76.3938C43.2547 76.3938 38.5843 71.7194 38.5843 65.9533C38.5843 60.1872 43.2547 55.5129 49.0159 55.5129C54.7771 55.5129 59.4475 60.1872 59.4475 65.9533Z" fill="black"/>
<path d="M93.2259 65.9533C93.2259 71.7194 88.5555 76.3938 82.7943 76.3938C77.0331 76.3938 72.3627 71.7194 72.3627 65.9533C72.3627 60.1872 77.0331 55.5129 82.7943 55.5129C88.5555 55.5129 93.2259 60.1872 93.2259 65.9533Z" fill="url(#paint2_radial_10602_4447)"/>
<path d="M93.2259 65.9533C93.2259 71.7194 88.5555 76.3938 82.7943 76.3938C77.0331 76.3938 72.3627 71.7194 72.3627 65.9533C72.3627 60.1872 77.0331 55.5129 82.7943 55.5129C88.5555 55.5129 93.2259 60.1872 93.2259 65.9533Z" fill="black"/>
<path d="M175.379 95.8192C169.915 95.8192 164.998 94.5302 160.627 91.9524C156.256 89.3746 152.783 85.8984 150.207 81.5239C147.632 77.0713 146.344 72.1109 146.344 66.6428C146.344 61.2528 147.632 56.4096 150.207 52.1132C152.783 47.7387 156.256 44.2625 160.627 41.6847C164.998 39.1069 169.915 37.818 175.379 37.818C180.764 37.818 185.642 39.1069 190.013 41.6847C194.462 44.1844 197.974 47.6215 200.55 51.996C203.125 56.3705 204.413 61.2528 204.413 66.6428C204.413 72.1109 203.125 77.0713 200.55 81.5239C197.974 85.8984 194.462 89.3746 190.013 91.9524C185.642 94.5302 180.764 95.8192 175.379 95.8192ZM175.379 85.625C178.891 85.625 182.013 84.8048 184.745 83.1643C187.476 81.5239 189.623 79.2976 191.184 76.4854C192.745 73.5951 193.525 70.3142 193.525 66.6428C193.525 63.0494 192.706 59.8467 191.067 57.0345C189.506 54.2223 187.359 52.0351 184.628 50.4728C181.974 48.8323 178.891 48.0121 175.379 48.0121C171.866 48.0121 168.744 48.8323 166.013 50.4728C163.281 52.0351 161.135 54.2223 159.574 57.0345C158.013 59.8467 157.232 63.0494 157.232 66.6428C157.232 70.3142 158.013 73.5951 159.574 76.4854C161.135 79.2976 163.281 81.5239 166.013 83.1643C168.744 84.8048 171.866 85.625 175.379 85.625Z" fill="black"/>
<path d="M296.798 95.8192C291.335 95.8192 286.418 94.5302 282.047 91.9524C277.676 89.3746 274.203 85.8984 271.627 81.5239C269.052 77.0713 267.764 72.1109 267.764 66.6428C267.764 61.2528 269.052 56.4096 271.627 52.1132C274.203 47.7387 277.676 44.2625 282.047 41.6847C286.418 39.1069 291.335 37.818 296.798 37.818C302.184 37.818 307.062 39.1069 311.433 41.6847C315.882 44.1844 319.394 47.6215 321.97 51.996C324.545 56.3705 325.833 61.2528 325.833 66.6428C325.833 72.1109 324.545 77.0713 321.97 81.5239C319.394 85.8984 315.882 89.3746 311.433 91.9524C307.062 94.5302 302.184 95.8192 296.798 95.8192ZM296.798 85.625C300.311 85.625 303.433 84.8048 306.164 83.1643C308.896 81.5239 311.043 79.2976 312.604 76.4854C314.165 73.5951 314.945 70.3142 314.945 66.6428C314.945 63.0494 314.126 59.8467 312.487 57.0345C310.926 54.2223 308.779 52.0351 306.047 50.4728C303.394 48.8323 300.311 48.0121 296.798 48.0121C293.286 48.0121 290.164 48.8323 287.432 50.4728C284.701 52.0351 282.554 54.2223 280.993 57.0345C279.432 59.8467 278.652 63.0494 278.652 66.6428C278.652 70.3142 279.432 73.5951 280.993 76.4854C282.554 79.2976 284.701 81.5239 287.432 83.1643C290.164 84.8048 293.286 85.625 296.798 85.625Z" fill="black"/>
<path d="M402.784 95.8192C397.32 95.8192 392.403 94.5302 388.032 91.9524C383.661 89.3746 380.188 85.8984 377.612 81.5239C375.037 77.0713 373.749 72.1109 373.749 66.6428C373.749 61.2528 375.037 56.4096 377.612 52.1132C380.188 47.7387 383.661 44.2625 388.032 41.6847C392.403 39.1069 397.32 37.818 402.784 37.818C408.169 37.818 413.047 39.1069 417.418 41.6847C421.867 44.1844 425.379 47.6215 427.955 51.996C430.53 56.3705 431.818 61.2528 431.818 66.6428C431.818 72.1109 430.53 77.0713 427.955 81.5239C425.379 85.8984 421.867 89.3746 417.418 91.9524C413.047 94.5302 408.169 95.8192 402.784 95.8192ZM402.784 85.625C406.296 85.625 409.418 84.8048 412.15 83.1643C414.881 81.5239 417.028 79.2976 418.589 76.4854C420.15 73.5951 420.93 70.3142 420.93 66.6428C420.93 63.0494 420.111 59.8467 418.472 57.0345C416.911 54.2223 414.764 52.0351 412.032 50.4728C409.379 48.8323 406.296 48.0121 402.784 48.0121C399.271 48.0121 396.149 48.8323 393.418 50.4728C390.686 52.0351 388.539 54.2223 386.978 57.0345C385.417 59.8467 384.637 63.0494 384.637 66.6428C384.637 70.3142 385.417 73.5951 386.978 76.4854C388.539 79.2976 390.686 81.5239 393.418 83.1643C396.149 84.8048 399.271 85.625 402.784 85.625Z" fill="black"/>
<path d="M500.058 94.6474V38.9897H510.595V94.6474H500.058ZM505.327 27.8581C503.375 27.8581 501.775 27.2332 500.527 25.9834C499.278 24.6554 498.653 23.015 498.653 21.0621C498.653 19.1873 499.278 17.6249 500.527 16.3751C501.775 15.0471 503.375 14.3831 505.327 14.3831C507.278 14.3831 508.878 15.0471 510.127 16.3751C511.376 17.6249 512 19.1873 512 21.0621C512 23.015 511.376 24.6554 510.127 25.9834C508.878 27.2332 507.278 27.8581 505.327 27.8581Z" fill="black"/>
<path fill-rule="evenodd" clip-rule="evenodd" d="M226.822 67.2002L251.876 94.6474H265.457L238.818 65.7463L264.403 38.9897H251.642L226.822 65.1856V10.9851H216.285V94.6474H226.822V67.2002ZM238.818 65.7463L236.188 62.8932L235.72 68.9863L238.818 65.7463Z" fill="black"/>
<path d="M236.188 62.8932L235.72 68.9863L238.818 65.7463L236.188 62.8932Z" fill="black"/>
<path fill-rule="evenodd" clip-rule="evenodd" d="M454.227 67.2002L479.281 94.6474H492.862L466.223 65.7463L491.808 38.9897H479.047L454.227 65.1856V10.9851H443.69V94.6474H454.227V67.2002ZM466.223 65.7463L463.593 62.8932L463.125 68.9863L466.223 65.7463Z" fill="black"/>
<path d="M463.593 62.8932L463.125 68.9863L466.223 65.7463L463.593 62.8932Z" fill="black"/>
<path d="M357.941 95.8192C353.439 95.8192 349.856 94.505 347.193 91.8768C344.567 89.2109 343.254 84.9682 343.254 79.1484V46.0407H333.631V37.818H343.254V19.224H354.339V37.818H367.563V46.0407H354.339V79.1484C354.339 82.0771 354.921 84.236 356.084 85.6252C357.247 87.0145 358.804 87.7091 360.754 87.7091C362.067 87.7091 363.53 87.5964 365.144 87.3712C366.757 87.1083 368.014 86.8831 368.914 86.6953L370.433 93.9606C368.82 94.4487 366.832 94.8805 364.468 95.256C362.142 95.6314 359.967 95.8192 357.941 95.8192Z" fill="black"/>
<defs>
<radialGradient id="paint0_radial_10602_4447" cx="0" cy="0" r="1" gradientUnits="userSpaceOnUse" gradientTransform="translate(256 65.9104) rotate(90) scale(48.0597 186.667)">
<stop stop-color="#04FED0"/>
<stop offset="1" stop-color="#923DFF"/>
</radialGradient>
<radialGradient id="paint1_radial_10602_4447" cx="0" cy="0" r="1" gradientUnits="userSpaceOnUse" gradientTransform="translate(256 65.9104) rotate(90) scale(48.0597 186.667)">
<stop stop-color="#04FED0"/>
<stop offset="1" stop-color="#923DFF"/>
</radialGradient>
<radialGradient id="paint2_radial_10602_4447" cx="0" cy="0" r="1" gradientUnits="userSpaceOnUse" gradientTransform="translate(256 65.9104) rotate(90) scale(48.0597 186.667)">
<stop stop-color="#04FED0"/>
<stop offset="1" stop-color="#923DFF"/>
</radialGradient>
</defs>
</svg>
